# xmcd
#
# Track frame offsets:
#	150
#	20350
#	38903
#	59075
#	78005
#	96160
#	114748
#	132120
#	147343
#	164248
#	179115
#	200828
#	220370
#	240295
#	257850
#	275695
#
# Disc length: 3901 seconds
#
# Revision: 1
# Processed by: cddbd v1.5.1PL0 Copyright (c) Steve Scherf et al.
# Submitted via: CDex 1.50Beta5
#
DISCID=fa0f3b10
DTITLE=川中美幸 - 川中美幸オリジナルベスト
DYEAR=1992
DGENRE=World
TTITLE0=夢追い女
TTITLE1=炎情歌
TTITLE2=ぐい呑み酒
TTITLE3=月夜だね
TTITLE4=女 泣き砂 日本海
TTITLE5=浪花灯り
TTITLE6=ふたりの絆
TTITLE7=遣らずの雨
TTITLE8=おれとおまえ
TTITLE9=酔わせて
TTITLE10=豊後水道
TTITLE11=忍路海岸わかれ雪
TTITLE12=忍ぶ川
TTITLE13=盛り場渡し舟
TTITLE14=越前岬
TTITLE15=ふたり酒
EXTD=
EXTT0=
EXTT1=
EXTT2=
EXTT3=
EXTT4=
EXTT5=
EXTT6=
EXTT7=
EXTT8=
EXTT9=
EXTT10=
EXTT11=
EXTT12=
EXTT13=
EXTT14=
EXTT15=
PLAYORDER=
